<svg xmlns="http://www.w3.org/2000/svg" version="1.1" xmlns:xlink="http://www.w3.org/1999/xlink" xmlns:svgjs="http://svgjs.dev/svgjs" width="1000" height="1000" viewBox="0 0 1000 1000"><rect width="1000" height="1000" fill="#ffffff"></rect><g transform="matrix(0.7,0,0,0.7,149.57575931242076,448.81314021994217)"><svg viewBox="0 0 396 58" data-background-color="#ffffff" preserveAspectRatio="xMidYMid meet" height="146" width="1000" xmlns="http://www.w3.org/2000/svg" xmlns:xlink="http://www.w3.org/1999/xlink"><g id="tight-bounds" transform="matrix(1,0,0,1,0.23999931268610908,0.04929420003281848)"><svg viewBox="0 0 395.52 57.90141159993435" height="57.90141159993435" width="395.52"><g><svg viewBox="0 0 518.6422753377473 75.92566711533522" height="57.90141159993435" width="395.52"><g transform="matrix(1,0,0,1,123.12227533774737,1.3368484562034482)"><svg viewBox="0 0 395.5199999999999 73.25197020292832" height="73.25197020292832" width="395.5199999999999"><g><svg viewBox="0 0 395.5199999999999 73.25197020292832" height="73.25197020292832" width="395.5199999999999"><g><svg viewBox="0 0 395.5199999999999 73.25197020292832" height="73.25197020292832" width="395.5199999999999"><g transform="matrix(1,0,0,1,0,0)"><svg width="395.5199999999999" viewBox="3.9000000953674316 -35.5 203.27999877929688 36.04999923706055" height="73.25197020292832" data-palette-color="#fa8a32"><g class="undefined-text-0" data-fill-palette-color="primary" id="text-0"><path d="M13.55 0L3.9-35 7.85-35 15.85-5.65 23.8-35 27.8-35 18.2 0 13.55 0ZM36.05 0L36.05-31.6 32.75-31.7 32.75-35 39.65-35 39.65 0 36.05 0ZM51.6 0L51.6-31.6 43.5-31.6 43.5-35 63.6-35 63.6-31.6 55.2-31.6 55.2 0 51.6 0ZM85.39 0L81.94-11.3 71.54-11.3 68.24 0 64.34 0 74.64-35 78.79-35 89.44 0 85.39 0ZM76.69-29.2L72.49-15 81.04-15 76.69-29.2ZM93.84 0L93.84-35 97.44-35 97.44-3.25 111.89-3.25 111.89 0 93.84 0Z" fill="#fa8a32" data-fill-palette-color="primary"></path><path d="M115.79 0L115.79-35 132.49-35 132.49-31.55 119.39-31.55 119.39-20.65 128.14-20.65 126.99-17.15 119.39-17.15 119.39-3.25 132.39-3.25 132.39 0 115.79 0ZM156.94 0L153.49-11.3 143.09-11.3 139.79 0 135.89 0 146.19-35 150.34-35 160.99 0 156.94 0ZM148.24-29.2L144.04-15 152.59-15 148.24-29.2ZM169.59 0L169.59-31.6 161.48-31.6 161.48-35 181.58-35 181.58-31.6 173.19-31.6 173.19 0 169.59 0ZM187.18-9.15Q187.33-7.55 188.36-6.13 189.38-4.7 191.13-3.83 192.88-2.95 195.18-2.95L195.18-2.95Q198.73-2.95 201.01-4.58 203.28-6.2 203.28-9.3L203.28-9.3Q203.28-11.5 202.08-12.98 200.88-14.45 199.13-15.33 197.38-16.2 194.33-17.35L194.33-17.35Q191.08-18.55 189.08-19.58 187.08-20.6 185.71-22.38 184.33-24.15 184.33-26.9L184.33-26.9Q184.33-29.1 185.58-31.08 186.83-33.05 189.36-34.27 191.88-35.5 195.58-35.5L195.58-35.5Q198.03-35.5 199.63-35.15 201.23-34.8 202.88-34L202.88-34 201.78-30.6Q198.68-31.95 195.68-31.95L195.68-31.95Q192.13-31.95 190.11-30.53 188.08-29.1 188.13-26.65L188.13-26.65Q188.13-25.15 189.18-24.08 190.23-23 191.78-22.25 193.33-21.5 195.98-20.55L195.98-20.55Q199.53-19.25 201.78-18.07 204.03-16.9 205.61-14.83 207.18-12.75 207.18-9.65L207.18-9.65Q207.18-5.05 204.26-2.25 201.33 0.55 195.23 0.55L195.23 0.55Q191.53 0.55 188.91-0.83 186.28-2.2 184.91-4.38 183.53-6.55 183.43-8.9L183.43-8.9 187.18-9.15Z" fill="#5ebc67" data-fill-palette-color="secondary"></path></g></svg></g></svg></g></svg></g></svg></g><g><svg viewBox="0 0 105.82924322012086 75.92566711533522" height="75.92566711533522" width="105.82924322012086"><g><svg xmlns="http://www.w3.org/2000/svg" xmlns:xlink="http://www.w3.org/1999/xlink" version="1.1" x="0" y="0" viewBox="81.30000305175781 209.5 834.5 598.7000122070312" style="enable-background:new 0 0 1000 1000;" xml:space="preserve" height="75.92566711533522" width="105.82924322012086" class="icon-icon-0" data-fill-palette-color="accent" id="icon-0"><g fill="#5ebc67" data-fill-palette-color="accent"><g fill="#5ebc67" data-fill-palette-color="accent"><g fill="#5ebc67" data-fill-palette-color="accent"><g fill="#5ebc67" data-fill-palette-color="accent"><path d="M246.8 699.1L246.8 699.1c0-2-0.1-4.9 0-8.6 0.1-7.4 0.6-18.1 2.1-30.9 0.7-6.4 1.7-13.3 2.9-20.6 1.3-7.3 2.8-14.9 4.8-22.8 1.9-7.8 4.2-15.9 6.9-23.9 2.7-8 5.8-16.1 9.4-24 3.6-7.9 7.5-15.5 11.9-22.9 4.3-7.3 9.1-14.2 14.1-20.6 5-6.4 10.3-12.3 15.6-17.6 5.3-5.3 10.8-9.9 16-13.9 5.2-4 10.3-7.3 14.8-10.2 2.3-1.3 4.5-2.7 6.5-3.8 2.1-1.1 3.9-2.2 5.7-3 1.7-0.9 3.3-1.6 4.7-2.3 1.4-0.6 2.5-1.1 3.5-1.6 1.7-0.7 2.7-1.2 2.9-1.3-0.2 0.1-1.3 0.4-3 1-1 0.3-2.2 0.7-3.7 1.2-1.4 0.5-3.1 1.1-4.9 1.8-1.8 0.7-3.8 1.5-6 2.4-2.2 0.9-4.5 2-7 3.1-4.9 2.4-10.4 5.2-16.2 8.8-5.8 3.5-11.8 7.7-17.9 12.6-6.1 4.8-12.2 10.4-18.2 16.5-5.9 6.1-11.7 12.9-17.1 20.1-5.4 7.2-10.4 14.9-15.1 22.8-4.6 7.9-8.8 16.1-12.6 24.3-3.8 8.2-7.1 16.5-10 24.5-2.9 8.1-5.4 16-7.6 23.6-2.2 7.6-3.9 14.8-5.4 21.6-3 13.5-4.7 24.9-5.7 33-0.5 4-0.8 7.3-1 9.5 0 0.4-0.1 0.8-0.1 1.2h-58.3c0-166.5 152.1-301.4 339.8-301.4s339.8 134.9 339.8 301.4H246.8z" fill="#5ebc67" data-fill-palette-color="accent"></path></g></g><g fill="#5ebc67" data-fill-palette-color="accent"><g fill="#5ebc67" data-fill-palette-color="accent"><path d="M892.5 764.2H104.6c-12.9 0-23.3-10.4-23.3-23.3 0-12.9 10.4-23.3 23.3-23.3h787.9c12.9 0 23.3 10.4 23.3 23.3C915.8 753.8 905.4 764.2 892.5 764.2z" fill="#5ebc67" data-fill-palette-color="accent"></path></g></g><g fill="#5ebc67" data-fill-palette-color="accent"><g fill="#5ebc67" data-fill-palette-color="accent"><circle cx="496.3" cy="357.3" r="33" fill="#5ebc67" data-fill-palette-color="accent"></circle></g></g></g><g fill="#5ebc67" data-fill-palette-color="accent"><path d="M888.4 808.2h-459c-8.3 0-15-6.7-15-15s6.7-15 15-15h459c8.3 0 15 6.7 15 15S896.7 808.2 888.4 808.2z" fill="#5ebc67" data-fill-palette-color="accent"></path></g><path d="M664.9 277.6c7 19.4 5.2 36-3 47.2-7.4 11.3-21.2 17.2-20.5 17.3-0.8-0.1 5.1-6.9 4.7-19.1 0.3-12.1-5.8-29.6-12.8-49-7-19.4-5.2-36 3-47.2 7.4-11.3 21.2-17.2 20.5-17.3 0.8 0.1-5.1 6.9-4.7 19.1C651.8 240.7 657.9 258.2 664.9 277.6z" fill="#5ebc67" data-fill-palette-color="accent"></path><path d="M670.3 343.8c-7.1 19.3-5.4 35.9 2.7 47.2 7.4 11.3 21.2 17.3 20.4 17.4 0.8-0.1-5.1-7-4.6-19.2-0.2-12.1 5.9-29.6 13.1-49 7.1-19.3 5.4-35.9-2.7-47.2-7.4-11.3-21.2-17.3-20.4-17.4-0.8 0.1 5.1 7 4.6 19.2C683.6 306.9 677.4 324.4 670.3 343.8z" fill="#5ebc67" data-fill-palette-color="accent"></path><path d="M143.2 541.2c8.7 17.4 8.8 33.2 2.3 44.7-5.8 11.4-18.1 18.5-17.4 18.5-0.7 0 4.1-7.1 2.3-18.5-1-11.4-8.7-27.2-17.4-44.7s-8.8-33.2-2.3-44.7c5.8-11.4 18.1-18.5 17.4-18.5 0.7 0-4.1 7.1-2.3 18.5C126.9 508 134.5 523.8 143.2 541.2z" fill="#5ebc67" data-fill-palette-color="accent"></path></g></svg></g></svg></g></svg></g><defs></defs></svg><rect width="395.52" height="57.90141159993435" fill="none" stroke="none" visibility="hidden"></rect></g></svg></g></svg>